<svg xmlns="http://www.w3.org/2000/svg" xmlns:xlink="http://www.w3.org/1999/xlink" viewBox="0 0 187.95 27.27"><defs><linearGradient id="a" x1="4426.34" y1="507.33" x2="4438.22" y2="507.33" gradientTransform="translate(4438.22 527.63) rotate(180)" gradientUnits="userSpaceOnUse"><stop offset="0" stop-color="#d81222"/><stop offset="1" stop-color="#960b1a"/></linearGradient></defs><title>Interactive Brokers logo</title><path d="M441,525.22h-3v-14.6h3Z" transform="translate(-418.03 -498.37)" style="fill:#222"/><path d="M452.36,515.05a3.53,3.53,0,0,1,1,2.89v7.28h-2.89v-6.57a3.33,3.33,0,0,0-.21-1.3,1.63,1.63,0,0,0-1.59-.84,2,2,0,0,0-2,1.21,4.38,4.38,0,0,0-.29,1.63v5.86h-2.8V514.47h2.72v1.59a6.66,6.66,0,0,1,1-1.21,3.67,3.67,0,0,1,2.22-.67A4.2,4.2,0,0,1,452.36,515.05Z" transform="translate(-418.03 -498.37)" style="fill:#222"/><path d="M454.75,516.56v-2h1.51v-3h2.8v3h1.76v2h-1.76v5.69c0,.46,0,.71.17.84s.46.17,1,.17h.59v2.09l-1.34,0c-1.34,0-2.26-.17-2.72-.71a2,2,0,0,1-.46-1.51v-6.61Z" transform="translate(-418.03 -498.37)" style="fill:#222"/><path d="M469.47,514.68a4.58,4.58,0,0,1,1.88,1.59,5.49,5.49,0,0,1,.88,2.22,10.52,10.52,0,0,1,.08,2.13h-7.86a2.52,2.52,0,0,0,1.13,2.26,3,3,0,0,0,1.55.42,2.3,2.3,0,0,0,1.55-.5,2.24,2.24,0,0,0,.59-.75h2.89a3.64,3.64,0,0,1-1,2,5.23,5.23,0,0,1-4.06,1.59,6,6,0,0,1-3.81-1.34,5.26,5.26,0,0,1-1.63-4.31,5.81,5.81,0,0,1,1.51-4.31,5.17,5.17,0,0,1,3.85-1.51A6.13,6.13,0,0,1,469.47,514.68Zm-4.18,2.43a2.71,2.71,0,0,0-.75,1.67h4.85a2.35,2.35,0,0,0-.75-1.71,2.54,2.54,0,0,0-1.67-.59A2.12,2.12,0,0,0,465.28,517.1Z" transform="translate(-418.03 -498.37)" style="fill:#222"/><path d="M479.92,514.17h.25v2.93c-.17,0-.33,0-.46,0h-.33a2.44,2.44,0,0,0-2.3,1.09,4.4,4.4,0,0,0-.33,1.92v5.14H473.9V514.43h2.68v1.88a5.2,5.2,0,0,1,1.13-1.46,3,3,0,0,1,2-.67Z" transform="translate(-418.03 -498.37)" style="fill:#222"/><path d="M486.07,518.65a5.88,5.88,0,0,0,1.13-.25.83.83,0,0,0,.63-.79,1,1,0,0,0-.46-.92,2.89,2.89,0,0,0-1.38-.25,1.72,1.72,0,0,0-1.42.5,2.21,2.21,0,0,0-.42,1h-2.72a4.13,4.13,0,0,1,.79-2.34c.75-1,2-1.42,3.85-1.42a7.11,7.11,0,0,1,3.18.71,2.66,2.66,0,0,1,1.38,2.63v6.19a1.41,1.41,0,0,0,.17.75,1.14,1.14,0,0,0,.42.33v.42h-3.05a3.48,3.48,0,0,1-.17-.63c0-.21,0-.42-.08-.67a5.65,5.65,0,0,1-1.34,1.09,4.32,4.32,0,0,1-2.09.54,3.63,3.63,0,0,1-2.43-.84,3,3,0,0,1-1-2.38,3,3,0,0,1,1.55-2.89,7.26,7.26,0,0,1,2.51-.71Zm1.71,1.34a3.46,3.46,0,0,1-.54.29,4.44,4.44,0,0,1-.75.21l-.63.13a6.32,6.32,0,0,0-1.3.38,1.28,1.28,0,0,0-.67,1.21,1.17,1.17,0,0,0,.42,1,1.53,1.53,0,0,0,1,.33A2.88,2.88,0,0,0,487,523a2.29,2.29,0,0,0,.79-2V520Z" transform="translate(-418.03 -498.37)" style="fill:#222"/><path d="M499.5,518.32a2.05,2.05,0,0,0-.42-1.09,1.75,1.75,0,0,0-1.46-.67,2,2,0,0,0-2,1.42,6.37,6.37,0,0,0-.29,2,5,5,0,0,0,.29,1.92,1.9,1.9,0,0,0,1.92,1.34,1.66,1.66,0,0,0,1.42-.54,2.51,2.51,0,0,0,.5-1.38h2.89a4.81,4.81,0,0,1-.92,2.43,4.54,4.54,0,0,1-3.93,1.84,4.58,4.58,0,0,1-3.85-1.55,6.15,6.15,0,0,1-1.25-4,6.4,6.4,0,0,1,1.34-4.31,4.68,4.68,0,0,1,3.76-1.55,5.42,5.42,0,0,1,3.3.92,4.39,4.39,0,0,1,1.55,3.22Z" transform="translate(-418.03 -498.37)" style="fill:#222"/><path d="M503.3,516.56v-2h1.51v-3h2.8v3h1.76v2h-1.76v5.69c0,.46,0,.71.17.84s.46.17,1,.17h.59v2.09l-1.34,0c-1.34,0-2.26-.17-2.72-.71a2,2,0,0,1-.46-1.51v-6.61Z" transform="translate(-418.03 -498.37)" style="fill:#222"/><path d="M514,513.17h-2.84v-2.59H514Zm-2.84,1.25H514v10.79h-2.84Z" transform="translate(-418.03 -498.37)" style="fill:#222"/><path d="M523.21,514.43h3l-3.89,10.79h-3l-3.85-10.79h3.18l2.26,7.95Z" transform="translate(-418.03 -498.37)" style="fill:#222"/><path d="M534.5,514.68a4.58,4.58,0,0,1,1.88,1.59,5.49,5.49,0,0,1,.88,2.22,10.52,10.52,0,0,1,.08,2.13h-7.86a2.52,2.52,0,0,0,1.13,2.26,3,3,0,0,0,1.55.42,2.3,2.3,0,0,0,1.55-.5,2.24,2.24,0,0,0,.59-.75h2.89a3.64,3.64,0,0,1-1,2,5.23,5.23,0,0,1-4.06,1.59,6,6,0,0,1-3.81-1.34,5.26,5.26,0,0,1-1.63-4.31,5.81,5.81,0,0,1,1.51-4.31,5.17,5.17,0,0,1,3.85-1.51A6.28,6.28,0,0,1,534.5,514.68Zm-4.22,2.43a2.71,2.71,0,0,0-.75,1.67h4.85a2.35,2.35,0,0,0-.75-1.71,2.54,2.54,0,0,0-1.67-.59A2.18,2.18,0,0,0,530.28,517.1Z" transform="translate(-418.03 -498.37)" style="fill:#222"/><path d="M539.18,510.7h6.27a4.15,4.15,0,0,1,3.64,1.51,3.53,3.53,0,0,1,.63,2.09,3.17,3.17,0,0,1-.79,2.26,3.84,3.84,0,0,1-1.17.84,4.76,4.76,0,0,1,1.67,1,3.41,3.41,0,0,1,1,2.63,4.1,4.1,0,0,1-.88,2.55,5,5,0,0,1-4.22,1.71H539.1V510.7Zm5.56,6.15a4.89,4.89,0,0,0,2-.33,2,2,0,0,0,1.09-2,1.87,1.87,0,0,0-1.17-1.92,5.72,5.72,0,0,0-2-.29h-3.55v4.52Zm.63,6.69a3,3,0,0,0,2.59-1,2.57,2.57,0,0,0,.5-1.59,2.18,2.18,0,0,0-1.42-2.17,5.36,5.36,0,0,0-2-.29h-3.93v5.1Z" transform="translate(-418.03 -498.37)" style="fill:#222"/><path d="M552.53,514.63h1.67v1.84a3.49,3.49,0,0,1,1-1.3,2.69,2.69,0,0,1,1.88-.75h.17a1.92,1.92,0,0,1,.42,0v1.88c-.13,0-.21,0-.29,0h-.29a2.48,2.48,0,0,0-2,.88,3,3,0,0,0-.71,2v6.11h-1.8V514.63Z" transform="translate(-418.03 -498.37)" style="fill:#222"/><path d="M566.79,515.68a5.45,5.45,0,0,1,1.42,4,6.76,6.76,0,0,1-1.25,4.22,4.43,4.43,0,0,1-3.85,1.67,4.3,4.3,0,0,1-3.43-1.46,6,6,0,0,1-1.3-4,6.51,6.51,0,0,1,1.34-4.27,4.48,4.48,0,0,1,3.6-1.59A4.9,4.9,0,0,1,566.79,515.68Zm-1.09,7.07a6.88,6.88,0,0,0,.67-3,5.7,5.7,0,0,0-.46-2.43,2.65,2.65,0,0,0-2.55-1.46,2.51,2.51,0,0,0-2.34,1.25,5.75,5.75,0,0,0-.75,3A4.91,4.91,0,0,0,561,523a2.58,2.58,0,0,0,2.34,1.13A2.46,2.46,0,0,0,565.7,522.75Z" transform="translate(-418.03 -498.37)" style="fill:#222"/><path d="M570.22,510.7h1.71v8.45l4.56-4.52h2.26l-4.06,3.93,4.31,6.65h-2.26l-3.35-5.4-1.46,1.42v4h-1.71Z" transform="translate(-418.03 -498.37)" style="fill:#222"/><path d="M586.4,514.93a3.46,3.46,0,0,1,1.59,1.38,5.34,5.34,0,0,1,.71,1.88,10.68,10.68,0,0,1,.17,2.34h-7.7a4.76,4.76,0,0,0,.75,2.59,2.46,2.46,0,0,0,2.17,1,2.79,2.79,0,0,0,2.22-.92,3.3,3.3,0,0,0,.67-1.25h1.76a3.74,3.74,0,0,1-.46,1.3,4.39,4.39,0,0,1-2.89,2.26,5.22,5.22,0,0,1-1.46.17,4.46,4.46,0,0,1-3.35-1.42,5.57,5.57,0,0,1-1.38-4,6,6,0,0,1,1.38-4.14,4.6,4.6,0,0,1,3.6-1.59A3.74,3.74,0,0,1,586.4,514.93Zm.63,4.14a5.09,5.09,0,0,0-.5-1.84,2.55,2.55,0,0,0-2.43-1.3,2.72,2.72,0,0,0-2,.88,3.43,3.43,0,0,0-.88,2.26Z" transform="translate(-418.03 -498.37)" style="fill:#222"/><path d="M591,514.63h1.67v1.84a3.49,3.49,0,0,1,1-1.3,2.69,2.69,0,0,1,1.88-.75h.17a1.92,1.92,0,0,1,.42,0v1.88c-.13,0-.21,0-.29,0h-.29a2.48,2.48,0,0,0-2,.88,3,3,0,0,0-.71,2v6.11H591V514.63Z" transform="translate(-418.03 -498.37)" style="fill:#222"/><path d="M598.74,521.91a2.57,2.57,0,0,0,.46,1.38,2.86,2.86,0,0,0,2.38.88,3.68,3.68,0,0,0,1.8-.42,1.42,1.42,0,0,0,.75-1.34,1.15,1.15,0,0,0-.63-1,11.11,11.11,0,0,0-1.55-.5l-1.42-.38a6.62,6.62,0,0,1-2-.75,2.22,2.22,0,0,1-1.17-2,3.08,3.08,0,0,1,1.09-2.43,4.35,4.35,0,0,1,3-.92,4.07,4.07,0,0,1,3.51,1.42,3.08,3.08,0,0,1,.67,1.92h-1.67a2.05,2.05,0,0,0-.42-1.09,2.82,2.82,0,0,0-2.17-.71,2.64,2.64,0,0,0-1.55.38,1.23,1.23,0,0,0-.54,1,1.22,1.22,0,0,0,.71,1.09,4.11,4.11,0,0,0,1.17.42l1.21.29a9,9,0,0,1,2.63.92,2.35,2.35,0,0,1,1,2.13,3.21,3.21,0,0,1-1.09,2.43,4.74,4.74,0,0,1-3.3,1,4.51,4.51,0,0,1-3.39-1.09,4.19,4.19,0,0,1-1.09-2.68h1.63Z" transform="translate(-418.03 -498.37)" style="fill:#222"/><polygon points="11.88 26.85 0 26.85 0 13.76 11.88 26.85" style="fill:url(#a)"/><circle cx="10.2" cy="16.98" r="3.55" style="fill:#d81222"/><polygon points="11.88 0 0 13.76 0 26.85 11.88 0" style="fill:#d81222"/></svg>